<svg width="39" height="40" viewBox="0 0 39 40" fill="none" xmlns="http://www.w3.org/2000/svg">
<g id="Linkedin">
<path id="Linkedin_2" d="M33.2231 34.0877H27.4548V24.8042C27.4548 22.5905 27.4097 19.7456 24.4384 19.7456C21.4305 19.7456 20.9722 22.1468 20.9722 24.6405V34.0864H15.1966V14.9983H20.7443V17.602H20.8187C21.5938 16.0982 23.4792 14.517 26.2921 14.517C32.1433 14.517 33.2292 18.4682 33.2292 23.6055V34.0864L33.2231 34.0877ZM8.67141 12.3896C6.81037 12.3896 5.31862 10.8459 5.31862 8.94472C5.31862 7.04978 6.81647 5.50858 8.67141 5.50858C10.5263 5.50858 12.0291 7.04978 12.0291 8.94472C12.0291 10.8459 10.5263 12.3896 8.67141 12.3896ZM11.5647 34.0877H5.77687V14.9995H11.5647V34.0877ZM36.1189 0H2.87625C1.28822 0 0 1.28871 0 2.88366V37.1163C0 38.7113 1.28822 40 2.87625 40H36.1128C37.6984 40 39 38.7113 39 37.1163V2.88366C39 1.28871 37.6984 0 36.1128 0L36.1189 0Z" fill="#F3EFF5"/>
</g>
</svg>
