<svg width="151" height="151" viewBox="0 0 151 151" fill="none" xmlns="http://www.w3.org/2000/svg">
<path id="person" d="M75.5 75.5C65.1188 75.5 56.2318 71.8036 48.8391 64.4109C41.4464 57.0182 37.75 48.1312 37.75 37.75C37.75 27.3687 41.4464 18.4818 48.8391 11.0891C56.2318 3.69635 65.1188 0 75.5 0C85.8812 0 94.7682 3.69635 102.161 11.0891C109.554 18.4818 113.25 27.3687 113.25 37.75C113.25 48.1312 109.554 57.0182 102.161 64.4109C94.7682 71.8036 85.8812 75.5 75.5 75.5ZM0 151V124.575C0 119.227 1.3763 114.312 4.12891 109.829C6.88151 105.346 10.5385 101.925 15.1 99.5656C24.8521 94.6896 34.7615 91.0325 44.8281 88.5945C54.8948 86.1565 65.1188 84.9375 75.5 84.9375C85.8812 84.9375 96.1052 86.1565 106.172 88.5945C116.239 91.0325 126.148 94.6896 135.9 99.5656C140.461 101.925 144.118 105.346 146.871 109.829C149.624 114.312 151 119.227 151 124.575V151H0Z" fill="#F3EFF5"/>
</svg>
